inDegrees=yes
name=ik_dynamic
DataType=double
version=3
OpenSimVersion=4.5
endheader
time	pelvis_tilt	pelvis_list	pelvis_rotation	pelvis_tx	pelvis_ty	pelvis_tz	hip_flexion_r	hip_adduction_r	hip_rotation_r	knee_angle_r	knee_angle_r_beta	ankle_angle_r	subtalar_angle_r	mtp_angle_r	hip_flexion_l	hip_adduction_l	hip_rotation_l	knee_angle_l	knee_angle_l_beta	ankle_angle_l	subtalar_angle_l	mtp_angle_l	lumbar_extension	lumbar_bending	lumbar_rotation	arm_flex_r	arm_add_r	arm_rot_r	elbow_flex_r	pro_sup_r	wrist_flex_r	wrist_dev_r	arm_flex_l	arm_add_l	arm_rot_l	elbow_flex_l	pro_sup_l	wrist_flex_l	wrist_dev_l
0	0.01655039723685619	-2.409066607502925	0.9751684744596407	0	0.9399999999999999	0	-0.2807597302145685	1.605044496769753	-1.464692531207196	0.2900052226178547	0.005061545982660693	-4.650068659923227	0	0	0.5772978426520591	-2.41957302550413	0.4682077786427094	0.6101873031345513	0.01064977749356264	-4.650068659923227	0	0	0	0	0	0	-4.35572783608432	0	64.38654406055639	48.33153677047086	0	0	0	-4.35572783608432	0	64.38654406055639	48.33153677047086	0	0
0.05	0.01882502622665837	-2.39866023552581	0.9648434258080092	0	0.9399999999999999	0	-0.2830132313475341	1.647991501242862	-1.452207667311338	0.2901363960773279	0.005063835391419732	-4.653330548958351	0	0	0.5802179428494978	-2.45752469397784	0.463356457895556	0.614419510719202	0.01072364345054267	-4.653330548958351	0	0	0	0	0	0	-4.366955852662003	0	64.40871655005783	48.31254537459012	0	0	0	-4.366955852662003	0	64.40871655005783	48.31254537459012	0	0
0.1	0.0193504717847439	-2.40544506465997	0.9386756696788174	0	0.9399999999999999	0	-0.274639857223905	1.638073131556398	-1.405639374861968	0.2917362016266588	0.005091757265647233	-4.653584677995472	0	0	0.579597386578277	-2.499403750218849	0.4452772972060773	0.6076786249345113	0.01060599279909893	-4.653584677995472	0	0	0	0	0	0	-4.367303449041573	0	64.40960000442846	48.31138337293376	0	0	0	-4.367303449041573	0	64.40960000442846	48.31138337293376	0	0
0.15	-0.03030399352387854	-2.398762417712858	0.9228937134132313	0	0.9399999999999999	0	-0.1984995955191895	1.657008949412702	-1.39691101142635	0.2974468669666976	0.005191427178310432	-4.657730213947899	0	0	0.6337268517388146	-2.490644775584374	0.4492896138310171	0.5919003216818138	0.01033060945696123	-4.657730213947899	0	0	0	0	0	0	-4.38178221524256	0	64.43812534054895	48.28710667730814	0	0	0	-4.38178221524256	0	64.43812534054895	48.28710667730814	0	0
0.2	0.02589167766734534	-2.379146517233145	0.9015793974703605	0	0.9399999999999999	0	-0.2543771037651626	1.697705620015505	-1.349430814088954	0.2895133499485487	0.005052961185080731	-4.660409642939394	0	0	0.5814079391968655	-2.508448234680882	0.432692499049646	0.5854614070606136	0.01021822919656648	-4.660409642939394	0	0	0	0	0	0	-4.391078012751231	0	64.45647069639163	48.27144363748624	0	0	0	-4.391078012751231	0	64.45647069639163	48.27144363748624	0	0
0.25	0.0434892930404507	-2.375604308429469	0.8923834354480327	0	0.9399999999999999	0	-0.2603240120765144	1.717311414810548	-1.351875339238611	0.2913361553638915	0.005084775141201645	-4.662490803862521	0	0	0.5751174111544944	-2.540816730640452	0.4125732881117603	0.5682399205781923	0.009917657555360535	-4.662490803862521	0	0	0	0	0	0	-4.398233239245293	0	64.47062212898831	48.25930953178968	0	0	0	-4.398233239245293	0	64.47062212898831	48.25930953178968	0	0
0.3	-0.002634370607028171	-2.376728244726776	0.8903312213543422	0	0.9399999999999999	0	-0.1798420237033127	1.757762428977764	-1.332698383856751	0.2930080484921764	0.005113955181031685	-4.666328831271223	0	0	0.6488605080271616	-2.516190063530186	0.4241422053046688	0.5630770331431574	0.009827548170709332	-4.666328831271223	0	0	0	0	0	0	-4.411966698638445	0	64.49758578407236	48.23660329407553	0	0	0	-4.411966698638445	0	64.49758578407236	48.23660329407553	0	0
0.35	-0.003339958719954368	-2.364162423394337	0.8813612443982302	0	0.9399999999999999	0	-0.1620695662912071	1.792511380665826	-1.330653622782525	0.2891338388504036	0.005046337466870238	-4.674095589867072	0	0	0.6826532277382843	-2.477689167846203	0.4097674323539763	0.5652597758511921	0.009865644217688435	-4.674095589867072	0	0	0	0	0	0	-4.440414032091612	0	64.55323234911981	48.19022518919628	0	0	0	-4.440414032091612	0	64.55323234911981	48.19022518919628	0	0
0.4	-0.05792907463559473	-2.358877379069821	0.8796381406606946	0	0.9399999999999999	0	-0.07334189261619191	1.807225589219051	-1.334464267410838	0.2976851662340818	0.005195586285131376	-4.676981217607342	0	0	0.7751476907119065	-2.485649093920782	0.4107189572218558	0.5495244438204467	0.009591010864857403	-4.676981217607342	0	0	0	0	0	0	-4.450984378003416	0	64.57392970975583	48.17297007146972	0	0	0	-4.450984378003416	0	64.57392970975583	48.17297007146972	0	0
0.45	-0.0422187796378483	-2.34942551551967	0.8766235932190541	0	0.9399999999999999	0	-0.07485030438651451	1.806744345517965	-1.321527478437776	0.3004643545204112	0.005244092271260683	-4.677147969832379	0	0	0.8137803293557253	-2.464299413219271	0.4134965694488994	0.5595403839172942	0.009765821997229911	-4.677147969832379	0	0	0	0	0	0	-4.451608383132364	0	64.57514391279216	48.17196817669117	0	0	0	-4.451608383132364	0	64.57514391279216	48.17196817669117	0	0
